<?xml version="1.0" encoding="UTF-8" standalone="no"?>
<!DOCTYPE svg PUBLIC "-//W3C//DTD SVG 20010904//EN" "http://www.w3.org/TR/2001/REC-SVG-20010904/DTD/svg10.dtd">
<svg version="1.0" xmlns="http://www.w3.org/2000/svg" width="736.000000pt" height="1280.000000pt" viewBox="0 0 736.000000 1280.000000" preserveAspectRatio="xMidYMid meet">
<g transform="translate(0.000000,1280.000000) scale(0.100000,-0.100000)" fill="#000000" stroke="none">
<path d="M4299 12796 c-2 -2 -69 -9 -149 -15 -270 -22 -507 -57 -735 -111 -107 -25 -352 -95 -404 -115 -20 -8 -92 -35 -161 -60 -927 -342 -1780 -1041 -2381 -1950 -170 -257 -330 -541 -389 -690 -34 -86 -80 -277 -80 -332 0 -48 36 -179 67 -240 59 -119 198 -216 353 -249 153 -33 369 -2 520 73 l75 38 135 270 c173 346 310 572 488 808 460 610 1001 1010 1587 1176 985 277 1922 -199 2045 -1040 16 -107 8 -332 -15 -439 -60 -279 -222 -596 -442 -870 -98 -122 -308 -335 -446 -453 -299 -255 -589 -451 -1067 -721 -313 -177 -502 -317 -705 -520 -138 -138 -218 -236 -305 -376 -336 -535 -399 -1225 -204 -2215 101 -511 281 -1151 657 -2331 70 -220 86 -250 221 -413 355 -425 678 -413 761 28 28 144 23 200 -28 361 -123 388 -264 919 -331 1246 -53 260 -82 440 -116 729 -18 148 -24 545 -11 698 64 758 380 1285 1061 1771 63 45 214 146 335 225 1311 854 2148 1712 2518 2582 158 370 231 800 189 1109 -33 245 -80 405 -177 607 -188 391 -485 700 -921 959 -385 227 -916 390 -1419 434 -71 6 -166 15 -210 20 -78 10 -308 14 -316 6z"/>
<path d="M3718 841 c-311 -100 -410 -470 -185 -695 184 -184 480 -184 664 0 228 228 122 605 -196 698 -74 22 -210 20 -283 -3z"/>
</g>
</svg>